# Blender v2.79 (sub 0) OBJ File: ''
# www.blender.org
o Cylinder_Cylinder.001
v 0.000000 0.800000 -0.150000
v 0.106066 0.800000 -0.106066
v 0.150000 0.800000 0.000000
v 0.106066 0.800000 0.106066
v -0.000000 0.800000 0.150000
v -0.106066 0.800000 0.106066
v -0.150000 0.800000 -0.000000
v -0.106066 0.800000 -0.106066
v 0.000000 1.000000 0.000000
v 0.000000 0.000000 -0.050000
v 0.000000 0.800000 -0.050000
v 0.035355 0.000000 -0.035355
v 0.035355 0.800000 -0.035355
v 0.050000 0.000000 0.000000
v 0.050000 0.800000 0.000000
v 0.035355 0.000000 0.035355
v 0.035355 0.800000 0.035355
v -0.000000 0.000000 0.050000
v -0.000000 0.800000 0.050000
v -0.035355 0.000000 0.035355
v -0.035355 0.800000 0.035355
v -0.050000 0.000000 -0.000000
v -0.050000 0.800000 -0.000000
v -0.035355 0.000000 -0.035355
v -0.035355 0.800000 -0.035355
vn 0.3146 0.5695 -0.7594
vn 0.7594 0.5695 -0.3146
vn 0.7594 0.5695 0.3146
vn 0.3146 0.5695 0.7594
vn -0.3146 0.5695 0.7594
vn -0.7594 0.5695 0.3146
vn -0.7594 0.5695 -0.3146
vn -0.3146 0.5695 -0.7594
vn 0.0000 -1.0000 -0.0000
vn 0.3827 0.0000 -0.9239
vn 0.9239 0.0000 -0.3827
vn 0.9239 0.0000 0.3827
vn 0.3827 0.0000 0.9239
vn -0.3827 0.0000 0.9239
vn -0.9239 0.0000 0.3827
vn -0.9239 0.0000 -0.3827
vn -0.3827 0.0000 -0.9239
s off
f 1//1 9//1 2//1
f 2//2 9//2 3//2
f 3//3 9//3 4//3
f 4//4 9//4 5//4
f 5//5 9//5 6//5
f 6//6 9//6 7//6
f 7//7 9//7 8//7
f 8//8 9//8 1//8
f 11//9 25//9 8//9
f 11//10 12//10 10//10
f 13//11 14//11 12//11
f 15//12 16//12 14//12
f 17//13 18//13 16//13
f 19//14 20//14 18//14
f 21//15 22//15 20//15
f 23//16 24//16 22//16
f 25//17 10//17 24//17
f 12//9 16//9 20//9
f 19//9 17//9 4//9
f 8//9 1//9 11//9
f 1//9 2//9 11//9
f 2//9 3//9 15//9
f 2//9 15//9 13//9
f 7//9 8//9 25//9
f 25//9 23//9 7//9
f 2//9 13//9 11//9
f 11//10 13//10 12//10
f 13//11 15//11 14//11
f 15//12 17//12 16//12
f 17//13 19//13 18//13
f 19//14 21//14 20//14
f 21//15 23//15 22//15
f 23//16 25//16 24//16
f 25//17 11//17 10//17
f 24//9 10//9 12//9
f 12//9 14//9 16//9
f 16//9 18//9 20//9
f 20//9 22//9 24//9
f 24//9 12//9 20//9
f 6//9 7//9 23//9
f 6//9 23//9 21//9
f 4//9 5//9 19//9
f 5//9 6//9 21//9
f 15//9 3//9 4//9
f 17//9 15//9 4//9
f 5//9 21//9 19//9
