# Blender v2.79 (sub 0) OBJ File: ''
# www.blender.org
mtllib Floor.mtl
o Plane
v 3.629247 0.000000 -3.629247
v 3.629247 0.000000 3.629247
v -3.629247 5.727057 -3.629247
v -3.629247 5.727057 3.629247
v -3.629247 1.067986 -3.629247
v -2.561261 0.000000 -3.629247
v -3.608726 0.859633 -3.629247
v -3.547951 0.659286 -3.629247
v -3.449259 0.474645 -3.629247
v -3.316441 0.312806 -3.629247
v -3.154602 0.179988 -3.629247
v -2.969961 0.081296 -3.629247
v -2.769614 0.020521 -3.629247
v -2.561261 0.000000 3.629247
v -3.629247 1.067986 3.629247
v -2.769614 0.020521 3.629247
v -2.969961 0.081296 3.629247
v -3.154602 0.179988 3.629247
v -3.316441 0.312806 3.629247
v -3.449259 0.474645 3.629247
v -3.547951 0.659286 3.629247
v -3.608726 0.859633 3.629247
v -2.529213 0.000000 -3.629247
v -2.529213 0.000000 3.629247
v -3.629247 1.093243 3.629247
v -3.629247 1.093243 -3.629247
vn 1.0000 0.0000 0.0000
vn 0.9988 0.0490 0.0000
vn 0.9808 0.1951 0.0000
vn 0.9239 0.3827 0.0000
vn 0.8314 0.5556 0.0000
vn 0.7071 0.7071 0.0000
vn 0.5556 0.8314 0.0000
vn 0.3827 0.9239 0.0000
vn 0.1951 0.9808 0.0000
vn 0.0490 0.9988 0.0000
vn 0.0000 1.0000 0.0000
usemtl Material.001
s 1
f 25//1 26//1 3//1 4//1
f 5//2 15//2 22//3 7//3
f 7//3 22//3 21//4 8//4
f 8//4 21//4 20//5 9//5
f 9//5 20//5 19//6 10//6
f 10//6 19//6 18//7 11//7
f 11//7 18//7 17//8 12//8
f 12//8 17//8 16//9 13//9
f 13//9 16//9 14//10 6//10
f 23//11 6//10 14//10 24//11
f 1//11 23//11 24//11 2//11
f 15//2 5//2 26//1 25//1
